<svg width="180" height="52" viewBox="0 0 180 52" fill="none" xmlns="http://www.w3.org/2000/svg">
<g id="App Store">
<g id="Group">
<path id="BG" d="M179 46.0031C179 48.7743 176.708 51.0189 173.874 51.0189H6.13243C3.2995 51.0189 1 48.7743 1 46.0031V6.00357C1 3.23374 3.2995 0.981201 6.13243 0.981201H173.873C176.709 0.981201 178.999 3.23374 178.999 6.00357L179 46.0031Z" fill="#0A0A0A"/>
<path id="Border" d="M173.333 1.04163C176.42 1.04163 178.932 3.49051 178.932 6.5V45.5C178.932 48.5095 176.42 50.9584 173.333 50.9584H6.66667C3.58 50.9584 1.06833 48.5095 1.06833 45.5V6.5C1.06833 3.49051 3.58 1.04163 6.66667 1.04163H173.333ZM173.333 3.8147e-06H6.66667C3.00167 3.8147e-06 0 2.92663 0 6.5V45.5C0 49.0734 3.00167 52 6.66667 52H173.333C176.998 52 180 49.0734 180 45.5V6.5C180 2.92663 176.998 3.8147e-06 173.333 3.8147e-06Z" fill="#0A0A0A"/>
<g id="Icon">
<g id="Vector">
<path d="M40.1707 25.7191C40.132 21.5292 43.6893 19.4908 43.852 19.3959C41.8373 16.532 38.7147 16.1407 37.6173 16.1095C34.9947 15.8404 32.4507 17.6396 31.1147 17.6396C29.752 17.6396 27.6947 16.1355 25.4773 16.1797C22.624 16.2226 19.9547 17.8333 18.4907 20.3345C15.4693 25.4344 17.7227 32.9289 20.6173 37.0512C22.0653 39.0701 23.7573 41.3243 25.972 41.245C28.1387 41.1579 28.948 39.8982 31.5627 39.8982C34.1533 39.8982 34.9133 41.245 37.172 41.1943C39.4973 41.1579 40.9613 39.1663 42.3587 37.1292C44.032 34.8152 44.704 32.5363 44.7307 32.4193C44.676 32.4011 40.2147 30.741 40.1707 25.7191Z" fill="white"/>
<path d="M35.904 13.3977C37.0693 11.9768 37.8667 10.0437 37.6453 8.08203C35.9587 8.15483 33.8493 9.21953 32.6347 10.6092C31.56 11.8338 30.6 13.841 30.848 15.7286C32.7427 15.8664 34.688 14.7965 35.904 13.3977Z" fill="white"/>
</g>
</g>
<g id="Download on the">
<path id="D" d="M65.4001 13.0113C65.4001 14.5414 64.9295 15.6932 63.9895 16.4667C63.1188 17.1804 61.8815 17.5379 60.2788 17.5379C59.4841 17.5379 58.8041 17.5041 58.2348 17.4365V9.07621C58.9775 8.95921 59.7775 8.89941 60.6415 8.89941C62.1681 8.89941 63.3188 9.22311 64.0948 9.87051C64.9641 10.6024 65.4001 11.6489 65.4001 13.0113ZM63.9268 13.049C63.9268 12.0571 63.6575 11.2966 63.1188 10.7662C62.5801 10.2371 61.7935 9.97191 60.7575 9.97191C60.3175 9.97191 59.9428 10.0005 59.6321 10.0603V16.416C59.8041 16.442 60.1188 16.4537 60.5761 16.4537C61.6455 16.4537 62.4708 16.1638 63.0521 15.584C63.6335 15.0042 63.9268 14.1592 63.9268 13.049Z" fill="white"/>
<path id="o" d="M73.2121 14.3482C73.2121 15.2907 72.9361 16.0629 72.3841 16.6687C71.8055 17.2914 71.0388 17.6021 70.0815 17.6021C69.1588 17.6021 68.4241 17.3044 67.8761 16.7064C67.3295 16.1097 67.0561 15.357 67.0561 14.4496C67.0561 13.5006 67.3375 12.7219 67.9028 12.1174C68.4681 11.5129 69.2281 11.21 70.1855 11.21C71.1081 11.21 71.8495 11.5077 72.4108 12.1044C72.9441 12.6842 73.2121 13.433 73.2121 14.3482ZM71.7628 14.3924C71.7628 13.8269 71.6375 13.342 71.3881 12.9377C71.0948 12.4489 70.6775 12.2045 70.1348 12.2045C69.5735 12.2045 69.1468 12.4489 68.8535 12.9377C68.6028 13.342 68.4788 13.8347 68.4788 14.4171C68.4788 14.9826 68.6041 15.4675 68.8535 15.8718C69.1561 16.3606 69.5775 16.605 70.1215 16.605C70.6548 16.605 71.0735 16.3567 71.3748 15.8588C71.6335 15.4467 71.7628 14.9579 71.7628 14.3924Z" fill="white"/>
<path id="w" d="M83.6868 11.3345L81.7201 17.4627H80.4401L79.6255 14.8016C79.4188 14.1373 79.2508 13.4769 79.1201 12.8217H79.0948C78.9735 13.4951 78.8055 14.1542 78.5895 14.8016L77.7241 17.4627H76.4295L74.5801 11.3345H76.0161L76.7268 14.2478C76.8988 14.9368 77.0401 15.5933 77.1535 16.2147H77.1788C77.2828 15.7025 77.4548 15.0499 77.6975 14.2608L78.5895 11.3358H79.7281L80.5828 14.1984C80.7895 14.8965 80.9575 15.5686 81.0868 16.216H81.1255C81.2201 15.5855 81.3628 14.9134 81.5521 14.1984L82.3148 11.3358H83.6868V11.3345Z" fill="white"/>
<path id="n" d="M90.9308 17.4632H89.5334V13.9532C89.5334 12.8716 89.1121 12.3308 88.2668 12.3308C87.8521 12.3308 87.5174 12.479 87.2574 12.7767C87.0001 13.0744 86.8694 13.4254 86.8694 13.8271V17.4619H85.4721V13.0861C85.4721 12.5479 85.4548 11.9642 85.4214 11.3324H86.6494L86.7148 12.2905H86.7534C86.9161 11.9928 87.1588 11.7471 87.4774 11.5508C87.8561 11.322 88.2801 11.2063 88.7441 11.2063C89.3308 11.2063 89.8188 11.3909 90.2068 11.7614C90.6894 12.2151 90.9308 12.8924 90.9308 13.792V17.4632Z" fill="white"/>
<path id="l" d="M94.7841 17.4626H93.3882V8.52246H94.7841V17.4626Z" fill="white"/>
<path id="o_2" d="M103.011 14.3482C103.011 15.2907 102.735 16.0629 102.183 16.6687C101.604 17.2914 100.836 17.6021 99.8802 17.6021C98.9562 17.6021 98.2215 17.3044 97.6748 16.7064C97.1282 16.1097 96.8548 15.357 96.8548 14.4496C96.8548 13.5006 97.1362 12.7219 97.7015 12.1174C98.2668 11.5129 99.0268 11.21 99.9828 11.21C100.907 11.21 101.647 11.5077 102.209 12.1044C102.743 12.6842 103.011 13.433 103.011 14.3482ZM101.56 14.3924C101.56 13.8269 101.435 13.342 101.185 12.9377C100.893 12.4489 100.475 12.2045 99.9335 12.2045C99.3708 12.2045 98.9442 12.4489 98.6522 12.9377C98.4015 13.342 98.2775 13.8347 98.2775 14.4171C98.2775 14.9826 98.4028 15.4675 98.6522 15.8718C98.9548 16.3606 99.3762 16.605 99.9202 16.605C100.453 16.605 100.871 16.3567 101.172 15.8588C101.432 15.4467 101.56 14.9579 101.56 14.3924Z" fill="white"/>
<path id="a" d="M109.774 17.463H108.519L108.415 16.7571H108.376C107.947 17.32 107.335 17.6021 106.54 17.6021C105.947 17.6021 105.467 17.4162 105.106 17.047C104.778 16.7116 104.614 16.2943 104.614 15.799C104.614 15.0502 104.934 14.4795 105.578 14.0843C106.22 13.6891 107.124 13.4954 108.288 13.5045V13.3901C108.288 12.5828 107.854 12.1798 106.983 12.1798C106.363 12.1798 105.816 12.3319 105.344 12.6335L105.06 11.7391C105.644 11.3868 106.366 11.21 107.216 11.21C108.859 11.21 109.683 12.055 109.683 13.745V16.0018C109.683 16.6141 109.714 17.1016 109.774 17.463ZM108.323 15.357V14.4119C106.782 14.3859 106.011 14.798 106.011 15.6469C106.011 15.9667 106.099 16.2059 106.279 16.3658C106.459 16.5257 106.688 16.605 106.962 16.605C107.268 16.605 107.555 16.5101 107.816 16.3216C108.079 16.1318 108.24 15.8913 108.3 15.5962C108.315 15.5299 108.323 15.4493 108.323 15.357Z" fill="white"/>
<path id="d" d="M117.713 17.4626H116.473L116.408 16.4785H116.369C115.973 17.2273 115.299 17.6017 114.351 17.6017C113.593 17.6017 112.963 17.3118 112.463 16.732C111.963 16.1522 111.714 15.3995 111.714 14.4752C111.714 13.4833 111.984 12.6799 112.528 12.0663C113.055 11.4943 113.7 11.2083 114.468 11.2083C115.312 11.2083 115.903 11.4852 116.239 12.0403H116.265V8.52246H117.664V15.8116C117.664 16.4083 117.68 16.9582 117.713 17.4626ZM116.265 14.8782V13.8564C116.265 13.6796 116.252 13.5366 116.227 13.4274C116.148 13.0998 115.979 12.8242 115.721 12.6019C115.461 12.3796 115.148 12.2678 114.787 12.2678C114.265 12.2678 113.857 12.4693 113.557 12.8736C113.26 13.2779 113.109 13.794 113.109 14.4245C113.109 15.0303 113.252 15.5217 113.539 15.9C113.841 16.303 114.249 16.5045 114.76 16.5045C115.219 16.5045 115.585 16.3368 115.864 16.0001C116.133 15.6894 116.265 15.315 116.265 14.8782Z" fill="white"/>
<path id="o_3" d="M129.664 14.3482C129.664 15.2907 129.388 16.0629 128.836 16.6687C128.257 17.2914 127.492 17.6021 126.533 17.6021C125.612 17.6021 124.877 17.3044 124.328 16.7064C123.781 16.1097 123.508 15.357 123.508 14.4496C123.508 13.5006 123.789 12.7219 124.355 12.1174C124.92 11.5129 125.68 11.21 126.639 11.21C127.56 11.21 128.303 11.5077 128.863 12.1044C129.396 12.6842 129.664 13.433 129.664 14.3482ZM128.216 14.3924C128.216 13.8269 128.091 13.342 127.841 12.9377C127.547 12.4489 127.131 12.2045 126.587 12.2045C126.027 12.2045 125.6 12.4489 125.305 12.9377C125.055 13.342 124.931 13.8347 124.931 14.4171C124.931 14.9826 125.056 15.4675 125.305 15.8718C125.608 16.3606 126.029 16.605 126.573 16.605C127.107 16.605 127.527 16.3567 127.828 15.8588C128.085 15.4467 128.216 14.9579 128.216 14.3924Z" fill="white"/>
<path id="n_2" d="M137.178 17.4632H135.782V13.9532C135.782 12.8716 135.36 12.3308 134.514 12.3308C134.099 12.3308 133.764 12.479 133.506 12.7767C133.247 13.0744 133.118 13.4254 133.118 13.8271V17.4619H131.719V13.0861C131.719 12.5479 131.703 11.9642 131.67 11.3324H132.896L132.962 12.2905H133C133.164 11.9928 133.407 11.7471 133.724 11.5508C134.104 11.322 134.527 11.2063 134.992 11.2063C135.578 11.2063 136.066 11.3909 136.454 11.7614C136.938 12.2151 137.178 12.8924 137.178 13.792V17.4632Z" fill="white"/>
<path id="t" d="M146.582 12.3553H145.043V15.3323C145.043 16.0889 145.316 16.4672 145.858 16.4672C146.108 16.4672 146.316 16.4464 146.48 16.4035L146.516 17.437C146.24 17.5384 145.878 17.5891 145.431 17.5891C144.879 17.5891 144.45 17.4253 144.139 17.0977C143.827 16.7701 143.672 16.2189 143.672 15.4454V12.3553H142.754V11.3348H143.672V10.2116L145.042 9.80859V11.3335H146.58V12.3553H146.582Z" fill="white"/>
<path id="h" d="M153.979 17.4626H152.58V13.9786C152.58 12.8801 152.159 12.3302 151.315 12.3302C150.667 12.3302 150.224 12.6487 149.981 13.2857C149.94 13.4196 149.916 13.5834 149.916 13.7758V17.4613H148.52V8.52246H149.916V12.2158H149.943C150.383 11.5437 151.013 11.2083 151.831 11.2083C152.409 11.2083 152.888 11.3929 153.268 11.7634C153.741 12.2249 153.979 12.9113 153.979 13.8187V17.4626Z" fill="white"/>
<path id="e" d="M161.609 14.108C161.609 14.3524 161.591 14.5578 161.557 14.7255H157.367C157.385 15.3313 157.585 15.7928 157.973 16.1126C158.328 16.3986 158.785 16.5416 159.345 16.5416C159.965 16.5416 160.531 16.4454 161.04 16.2517L161.259 17.1981C160.663 17.4503 159.961 17.5764 159.149 17.5764C158.176 17.5764 157.409 17.2969 156.855 16.7379C156.297 16.1789 156.021 15.4288 156.021 14.4876C156.021 13.5633 156.279 12.7937 156.797 12.1801C157.339 11.5249 158.071 11.1973 158.995 11.1973C159.899 11.1973 160.585 11.5249 161.049 12.1801C161.424 12.7001 161.609 13.3436 161.609 14.108ZM160.276 13.7557C160.287 13.3514 160.195 13.003 160.005 12.7092C159.763 12.3309 159.393 12.1411 158.893 12.1411C158.437 12.1411 158.065 12.3257 157.781 12.6962C157.549 12.9913 157.412 13.3436 157.367 13.7557H160.276Z" fill="white"/>
</g>
<g id="App Store_2">
<path id="A" d="M71.5267 40.9557H68.4987L66.84 35.874H61.0747L59.4947 40.9557H56.5467L62.2587 23.6553H65.7867L71.5267 40.9557ZM66.34 33.742L64.84 29.2245C64.6813 28.763 64.384 27.6762 63.9453 25.9654H63.892C63.7173 26.7012 63.436 27.788 63.0493 29.2245L61.576 33.742H66.34Z" fill="white"/>
<path id="p" d="M86.216 34.5645C86.216 36.6861 85.628 38.3631 84.452 39.5942C83.3987 40.6901 82.0906 41.2374 80.5293 41.2374C78.844 41.2374 77.6333 40.6472 76.896 39.4668H76.8427V46.0383H74V32.5872C74 31.2534 73.964 29.8845 73.8947 28.4805H76.3947L76.5533 30.4578H76.6067C77.5547 28.968 78.9933 28.2244 80.924 28.2244C82.4333 28.2244 83.6933 28.8055 84.7013 29.969C85.712 31.1338 86.216 32.6652 86.216 34.5645ZM83.32 34.6659C83.32 33.4517 83.04 32.4507 82.4773 31.6629C81.8627 30.8413 81.0373 30.4305 80.0026 30.4305C79.3013 30.4305 78.664 30.6593 78.0946 31.1104C77.524 31.5654 77.1506 32.1595 76.976 32.8953C76.888 33.2385 76.844 33.5193 76.844 33.7403V35.8203C76.844 36.7277 77.1293 37.4934 77.7 38.1187C78.2707 38.744 79.012 39.056 79.924 39.056C80.9947 39.056 81.828 38.653 82.424 37.8496C83.0213 37.0449 83.32 35.9841 83.32 34.6659Z" fill="white"/>
<path id="p_2" d="M100.932 34.5645C100.932 36.6861 100.344 38.3631 99.1667 39.5942C98.1147 40.6901 96.8067 41.2374 95.2453 41.2374C93.56 41.2374 92.3493 40.6472 91.6133 39.4668H91.56V46.0383H88.7173V32.5872C88.7173 31.2534 88.6813 29.8845 88.612 28.4805H91.112L91.2707 30.4578H91.324C92.2707 28.968 93.7093 28.2244 95.6413 28.2244C97.1493 28.2244 98.4093 28.8055 99.42 29.969C100.427 31.1338 100.932 32.6652 100.932 34.5645ZM98.036 34.6659C98.036 33.4517 97.7547 32.4507 97.192 31.6629C96.5773 30.8413 95.7547 30.4305 94.7187 30.4305C94.016 30.4305 93.38 30.6593 92.8093 31.1104C92.2387 31.5654 91.8667 32.1595 91.692 32.8953C91.6053 33.2385 91.56 33.5193 91.56 33.7403V35.8203C91.56 36.7277 91.8453 37.4934 92.4133 38.1187C92.984 38.7427 93.7253 39.056 94.64 39.056C95.7107 39.056 96.544 38.653 97.14 37.8496C97.7373 37.0449 98.036 35.9841 98.036 34.6659Z" fill="white"/>
<path id="S" d="M117.385 36.1037C117.385 37.5753 116.861 38.7726 115.809 39.6969C114.653 40.707 113.044 41.2114 110.976 41.2114C109.067 41.2114 107.536 40.8526 106.377 40.1337L107.036 37.8236C108.284 38.5594 109.653 38.9286 111.145 38.9286C112.216 38.9286 113.049 38.692 113.648 38.2214C114.244 37.7508 114.541 37.119 114.541 36.3312C114.541 35.6292 114.296 35.0377 113.804 34.558C113.315 34.0783 112.497 33.6324 111.356 33.2203C108.249 32.0906 106.697 30.4357 106.697 28.2595C106.697 26.8373 107.241 25.6712 108.331 24.7638C109.416 23.8551 110.864 23.4014 112.675 23.4014C114.289 23.4014 115.631 23.6757 116.701 24.223L115.991 26.4824C114.991 25.952 113.86 25.6868 112.595 25.6868C111.595 25.6868 110.813 25.9273 110.253 26.4057C109.78 26.8334 109.543 27.3547 109.543 27.9722C109.543 28.656 109.813 29.2215 110.357 29.6661C110.831 30.0769 111.691 30.5215 112.939 31.0012C114.465 31.6005 115.587 32.3012 116.308 33.1046C117.027 33.9054 117.385 34.9077 117.385 36.1037Z" fill="white"/>
<path id="t_2" d="M126.784 30.5599H123.651V36.6166C123.651 38.1571 124.203 38.9267 125.309 38.9267C125.817 38.9267 126.239 38.8838 126.572 38.798L126.651 40.9027C126.091 41.1068 125.353 41.2095 124.44 41.2095C123.317 41.2095 122.44 40.8754 121.807 40.2085C121.176 39.5403 120.859 38.4197 120.859 36.8454V30.5573H118.992V28.4773H120.859V26.1932L123.651 25.3716V28.4773H126.784V30.5599Z" fill="white"/>
<path id="o_4" d="M140.921 34.6151C140.921 36.5326 140.359 38.1069 139.236 39.338C138.059 40.6055 136.496 41.2373 134.548 41.2373C132.671 41.2373 131.176 40.6302 130.061 39.416C128.947 38.2018 128.389 36.6691 128.389 34.8218C128.389 32.8887 128.963 31.3053 130.113 30.0742C131.261 28.8418 132.811 28.2256 134.759 28.2256C136.636 28.2256 138.147 28.8327 139.287 30.0482C140.377 31.2273 140.921 32.7496 140.921 34.6151ZM137.972 34.7048C137.972 33.5543 137.72 32.5676 137.209 31.7447C136.613 30.7489 135.761 30.2523 134.657 30.2523C133.515 30.2523 132.647 30.7502 132.051 31.7447C131.54 32.5689 131.288 33.5712 131.288 34.7568C131.288 35.9073 131.54 36.894 132.051 37.7156C132.665 38.7114 133.524 39.208 134.632 39.208C135.717 39.208 136.569 38.701 137.184 37.6896C137.708 36.8511 137.972 35.854 137.972 34.7048Z" fill="white"/>
<path id="r" d="M150.161 30.918C149.88 30.8673 149.58 30.8413 149.265 30.8413C148.265 30.8413 147.492 31.2092 146.948 31.9463C146.475 32.5963 146.237 33.4179 146.237 34.4098V40.9553H143.396L143.423 32.4091C143.423 30.9713 143.387 29.6622 143.316 28.4818H145.792L145.896 30.8686H145.975C146.275 30.0483 146.748 29.3879 147.396 28.8926C148.029 28.4467 148.713 28.2244 149.451 28.2244C149.713 28.2244 149.951 28.2426 150.161 28.2751V30.918Z" fill="white"/>
<path id="e_2" d="M162.875 34.1281C162.875 34.6247 162.841 35.0433 162.771 35.3852H154.243C154.276 36.6176 154.688 37.5601 155.48 38.2101C156.199 38.7912 157.128 39.0824 158.269 39.0824C159.532 39.0824 160.684 38.8861 161.72 38.4922L162.165 40.4162C160.955 40.931 159.525 41.1871 157.876 41.1871C155.892 41.1871 154.335 40.6177 153.201 39.4802C152.071 38.3427 151.504 36.8152 151.504 34.899C151.504 33.0179 152.031 31.4514 153.085 30.2021C154.189 28.8683 155.681 28.2014 157.559 28.2014C159.403 28.2014 160.799 28.8683 161.747 30.2021C162.497 31.2616 162.875 32.572 162.875 34.1281ZM160.164 33.4092C160.183 32.5876 159.997 31.8778 159.612 31.2785C159.12 30.5076 158.364 30.1228 157.347 30.1228C156.417 30.1228 155.661 30.4985 155.084 31.2525C154.611 31.8518 154.329 32.5707 154.243 33.4079H160.164V33.4092Z" fill="white"/>
</g>
</g>
</g>
</svg>
