<svg width="180" height="52" viewBox="0 0 180 52" fill="none" xmlns="http://www.w3.org/2000/svg">
<g id="Google Play">
<g id="Group">
<path id="BG" d="M173.333 52H6.66667C3.00167 52 0 49.0734 0 45.5V6.50001C0 2.92663 3.00167 6.67572e-06 6.66667 6.67572e-06H173.333C176.998 6.67572e-06 180 2.92663 180 6.50001V45.5C180 49.0734 176.998 52 173.333 52Z" fill="#0A0A0A"/>
<path id="Border" d="M173.333 1.04163C176.42 1.04163 178.932 3.49051 178.932 6.50001V45.5C178.932 48.5095 176.42 50.9584 173.333 50.9584H6.66667C3.58 50.9584 1.06833 48.5095 1.06833 45.5V6.50001C1.06833 3.49051 3.58 1.04163 6.66667 1.04163H173.333ZM173.333 6.67572e-06H6.66667C3.00167 6.67572e-06 0 2.92663 0 6.50001V45.5C0 49.0734 3.00167 52 6.66667 52H173.333C176.998 52 180 49.0734 180 45.5V6.50001C180 2.92663 176.998 6.67572e-06 173.333 6.67572e-06Z" fill="#0A0A0A"/>
<g id="Icon">
<path id="Vector" d="M13.9133 9.80044C13.5217 10.2002 13.295 10.8226 13.295 11.6286V40.3781C13.295 41.1841 13.5217 41.8064 13.9133 42.2062L14.01 42.2939L30.5333 26.1902V25.8099L14.01 9.7062L13.9133 9.80044Z" fill="url(#paint0_linear_1826_1479)"/>
<path id="Vector_2" d="M36.035 31.5608L30.5333 26.1902V25.8099L36.0416 20.4393L36.165 20.5092L42.6883 24.128C44.55 25.155 44.55 26.845 42.6883 27.8785L36.165 31.4909L36.035 31.5608Z" fill="url(#paint1_linear_1826_1479)"/>
<path id="Vector_3" d="M36.165 31.491L30.5333 26.0001L13.9133 42.2062C14.5317 42.84 15.54 42.9163 16.6867 42.2826L36.165 31.491Z" fill="url(#paint2_linear_1826_1479)"/>
<path id="Vector_4" d="M36.165 20.5091L16.6867 9.71751C15.54 9.09026 14.5317 9.16663 13.9133 9.80038L30.5333 26L36.165 20.5091Z" fill="url(#paint3_linear_1826_1479)"/>
</g>
<g id="GET IT ON">
<path id="G" d="M63.2232 13.3172C63.2232 14.4027 62.8898 15.2721 62.2332 15.9204C61.4782 16.6891 60.4948 17.0758 59.2898 17.0758C58.1382 17.0758 57.1548 16.6826 56.3482 15.9074C55.5398 15.1209 55.1365 14.1557 55.1365 13.0003C55.1365 11.8449 55.5398 10.8797 56.3482 10.0997C57.1548 9.31806 58.1382 8.9248 59.2898 8.9248C59.8632 8.9248 60.4098 9.04018 60.9315 9.25468C61.4515 9.4708 61.8748 9.7633 62.1815 10.1241L61.4848 10.8098C60.9498 10.1939 60.2215 9.89006 59.2898 9.89006C58.4498 9.89006 57.7215 10.1761 57.1032 10.7529C56.4915 11.3314 56.1848 12.0806 56.1848 13.0003C56.1848 13.9201 56.4915 14.6757 57.1032 15.2542C57.7215 15.8246 58.4498 16.1171 59.2898 16.1171C60.1815 16.1171 60.9315 15.8246 61.5232 15.2477C61.9132 14.8658 62.1348 14.3393 62.1932 13.6666H59.2898V12.7273H63.1632C63.2098 12.9304 63.2232 13.1271 63.2232 13.3172Z" fill="white" stroke="white" stroke-width="0.16" stroke-miterlimit="10"/>
<path id="E" d="M69.3682 10.0597H65.7298V12.5297H69.0098V13.4689H65.7298V15.9389H69.3682V16.896H64.6998V9.10254H69.3682V10.0597Z" fill="white" stroke="white" stroke-width="0.16" stroke-miterlimit="10"/>
<path id="T" d="M73.7047 16.896H72.6747V10.0597H70.4431V9.10254H75.9381V10.0597H73.7047V16.896Z" fill="white" stroke="white" stroke-width="0.16" stroke-miterlimit="10"/>
<path id="I" d="M79.9147 16.896V9.10254H80.943V16.896H79.9147Z" fill="white" stroke="white" stroke-width="0.16" stroke-miterlimit="10"/>
<path id="T_2" d="M85.5013 16.896H84.4797V10.0597H82.2397V9.10254H87.7413V10.0597H85.5013V16.896Z" fill="white" stroke="white" stroke-width="0.16" stroke-miterlimit="10"/>
<path id="O" d="M98.1449 15.8944C97.3566 16.6826 96.3799 17.0758 95.2149 17.0758C94.0432 17.0758 93.0666 16.6826 92.2782 15.8944C91.4916 15.1079 91.0999 14.1427 91.0999 13.0003C91.0999 11.8579 91.4916 10.8927 92.2782 10.1062C93.0666 9.31805 94.0432 8.9248 95.2149 8.9248C96.3732 8.9248 97.3499 9.31805 98.1382 10.1127C98.9316 10.9057 99.3232 11.8644 99.3232 13.0003C99.3232 14.1427 98.9316 15.1079 98.1449 15.8944ZM93.0399 15.2412C93.6332 15.8246 94.3549 16.1171 95.2149 16.1171C96.0682 16.1171 96.7966 15.8246 97.3832 15.2412C97.9749 14.6578 98.2749 13.9087 98.2749 13.0003C98.2749 12.0919 97.9749 11.3428 97.3832 10.7594C96.7966 10.1761 96.0682 9.88355 95.2149 9.88355C94.3549 9.88355 93.6332 10.1761 93.0399 10.7594C92.4482 11.3428 92.1482 12.0919 92.1482 13.0003C92.1482 13.9087 92.4482 14.6578 93.0399 15.2412Z" fill="white" stroke="white" stroke-width="0.16" stroke-miterlimit="10"/>
<path id="N" d="M100.768 16.896V9.10254H102.018L105.905 15.1638H105.95L105.905 13.6655V9.10254H106.933V16.896H105.86L101.79 10.5358H101.745L101.79 12.0405V16.896H100.768Z" fill="white" stroke="white" stroke-width="0.16" stroke-miterlimit="10"/>
</g>
<g id="Google Play_2">
<path id="Google Play_3" d="M90.8468 28.2778C87.7151 28.2778 85.1568 30.6015 85.1568 33.8077C85.1568 36.9878 87.7151 39.3359 90.8468 39.3359C93.9851 39.3359 96.5434 36.9878 96.5434 33.8077C96.5434 30.6015 93.9851 28.2778 90.8468 28.2778ZM90.8468 37.1584C89.1284 37.1584 87.6501 35.7755 87.6501 33.8077C87.6501 31.8138 89.1284 30.4553 90.8468 30.4553C92.5651 30.4553 94.0501 31.8138 94.0501 33.8077C94.0501 35.7755 92.5651 37.1584 90.8468 37.1584ZM78.4318 28.2778C75.2934 28.2778 72.7418 30.6015 72.7418 33.8077C72.7418 36.9878 75.2934 39.3359 78.4318 39.3359C81.5684 39.3359 84.1218 36.9878 84.1218 33.8077C84.1218 30.6015 81.5684 28.2778 78.4318 28.2778ZM78.4318 37.1584C76.7118 37.1584 75.2285 35.7755 75.2285 33.8077C75.2285 31.8138 76.7118 30.4553 78.4318 30.4553C80.1501 30.4553 81.6284 31.8138 81.6284 33.8077C81.6284 35.7755 80.1501 37.1584 78.4318 37.1584ZM63.6585 29.9727V32.3224H69.4134C69.2451 33.6354 68.7951 34.6007 68.1051 35.2734C67.2651 36.0859 65.9568 36.9878 63.6585 36.9878C60.1168 36.9878 57.3435 34.2009 57.3435 30.7478C57.3435 27.2947 60.1168 24.5078 63.6585 24.5078C65.5735 24.5078 66.9668 25.2374 67.9951 26.1832L69.6935 24.5273C68.2551 23.1883 66.3418 22.1597 63.6585 22.1597C58.8018 22.1597 54.7201 26.0125 54.7201 30.7478C54.7201 35.483 58.8018 39.3359 63.6585 39.3359C66.2835 39.3359 68.2551 38.4974 69.8051 36.9244C71.3934 35.3758 71.8884 33.1983 71.8884 31.44C71.8884 30.894 71.8418 30.3919 71.7585 29.9727H63.6585ZM124.068 31.7943C123.6 30.5577 122.155 28.2778 119.212 28.2778C116.295 28.2778 113.867 30.5187 113.867 33.8077C113.867 36.9049 116.27 39.3359 119.492 39.3359C122.097 39.3359 123.6 37.7873 124.218 36.8854L122.285 35.6293C121.64 36.549 120.762 37.1584 119.492 37.1584C118.23 37.1584 117.325 36.5945 116.745 35.483L124.33 32.4232L124.068 31.7943ZM116.335 33.6354C116.27 31.5034 118.033 30.4114 119.297 30.4114C120.287 30.4114 121.127 30.894 121.407 31.5847L116.335 33.6354ZM110.17 38.9995H112.663V22.7495H110.17V38.9995ZM106.087 29.5095H106.003C105.443 28.8628 104.375 28.2778 103.022 28.2778C100.182 28.2778 97.5851 30.7088 97.5851 33.8255C97.5851 36.9244 100.182 39.3359 103.022 39.3359C104.375 39.3359 105.443 38.746 106.003 38.0798H106.087V38.8728C106.087 40.9869 104.928 42.1228 103.06 42.1228C101.537 42.1228 100.592 41.0503 100.202 40.1484L98.0334 41.0308C98.6584 42.4965 100.313 44.3003 103.06 44.3003C105.983 44.3003 108.45 42.6233 108.45 38.5429V28.6142H106.087V29.5095ZM103.235 37.1584C101.517 37.1584 100.078 35.756 100.078 33.8255C100.078 31.8772 101.517 30.4553 103.235 30.4553C104.928 30.4553 106.263 31.8772 106.263 33.8255C106.263 35.756 104.928 37.1584 103.235 37.1584ZM135.742 22.7495H129.778V38.9995H132.265V32.8424H135.742C138.503 32.8424 141.212 30.894 141.212 27.7952C141.212 24.6979 138.497 22.7495 135.742 22.7495ZM135.807 30.582H132.265V25.0099H135.807C137.663 25.0099 138.723 26.513 138.723 27.7952C138.723 29.0529 137.663 30.582 135.807 30.582ZM151.178 28.2469C149.382 28.2469 147.513 29.0204 146.745 30.7348L148.952 31.6367C149.427 30.7348 150.3 30.4423 151.223 30.4423C152.513 30.4423 153.822 31.1979 153.842 32.532V32.7027C153.392 32.4492 152.428 32.0738 151.243 32.0738C148.867 32.0738 146.445 33.3494 146.445 35.73C146.445 37.9075 148.392 39.3099 150.58 39.3099C152.253 39.3099 153.177 38.5738 153.757 37.7174H153.842V38.9735H156.243V32.74C156.243 29.8589 154.037 28.2469 151.178 28.2469ZM150.878 37.1519C150.065 37.1519 148.932 36.7587 148.932 35.7755C148.932 34.5178 150.345 34.0352 151.568 34.0352C152.663 34.0352 153.177 34.2708 153.842 34.5812C153.647 36.0859 152.318 37.1519 150.878 37.1519ZM164.993 28.6028L162.135 35.6472H162.05L159.095 28.6028H156.413L160.853 38.447L158.32 43.9249H160.918L167.76 28.6028H164.993ZM142.578 38.9995H145.072V22.7495H142.578V38.9995Z" fill="white"/>
</g>
</g>
</g>
<defs>
<linearGradient id="paint0_linear_1826_1479" x1="29.0663" y1="40.6775" x2="7.25614" y2="18.3081" gradientUnits="userSpaceOnUse">
<stop stop-color="#00A0FF"/>
<stop offset="0.0066" stop-color="#00A1FF"/>
<stop offset="0.2601" stop-color="#00BEFF"/>
<stop offset="0.5122" stop-color="#00D2FF"/>
<stop offset="0.7604" stop-color="#00DFFF"/>
<stop offset="1" stop-color="#00E3FF"/>
</linearGradient>
<linearGradient id="paint1_linear_1826_1479" x1="45.1125" y1="25.9982" x2="12.85" y2="25.9982" gradientUnits="userSpaceOnUse">
<stop stop-color="#FFE000"/>
<stop offset="0.4087" stop-color="#FFBD00"/>
<stop offset="0.7754" stop-color="#FFA500"/>
<stop offset="1" stop-color="#FF9C00"/>
</linearGradient>
<linearGradient id="paint2_linear_1826_1479" x1="33.1027" y1="23.0152" x2="3.52635" y2="-7.31951" gradientUnits="userSpaceOnUse">
<stop stop-color="#FF3A44"/>
<stop offset="1" stop-color="#C31162"/>
</linearGradient>
<linearGradient id="paint3_linear_1826_1479" x1="9.72973" y1="51.7709" x2="22.9369" y2="38.2253" gradientUnits="userSpaceOnUse">
<stop stop-color="#32A071"/>
<stop offset="0.0685" stop-color="#2DA771"/>
<stop offset="0.4762" stop-color="#15CF74"/>
<stop offset="0.8009" stop-color="#06E775"/>
<stop offset="1" stop-color="#00F076"/>
</linearGradient>
</defs>
</svg>
