<svg width="29" height="24" viewBox="0 0 29 24" fill="none" xmlns="http://www.w3.org/2000/svg">
<g id="Group 10">
<path id="Fill 1" fill-rule="evenodd" clip-rule="evenodd" d="M17.1328 5.8945C16.5808 5.8945 16.1328 5.4465 16.1328 4.8945V1.6665C16.1328 1.1145 16.5808 0.666504 17.1328 0.666504C17.6848 0.666504 18.1328 1.1145 18.1328 1.6665V4.8945C18.1328 5.4465 17.6848 5.8945 17.1328 5.8945Z" fill="#121212"/>
<path id="Fill 3" fill-rule="evenodd" clip-rule="evenodd" d="M17.1328 23.3789C16.5808 23.3789 16.1328 22.9309 16.1328 22.3789V19.6815C16.1328 19.1282 16.5808 18.6815 17.1328 18.6815C17.6848 18.6815 18.1328 19.1282 18.1328 19.6815V22.3789C18.1328 22.9309 17.6848 23.3789 17.1328 23.3789Z" fill="#121212"/>
<path id="Fill 5" fill-rule="evenodd" clip-rule="evenodd" d="M17.1328 16.1002C16.5808 16.1002 16.1328 15.6522 16.1328 15.1002V8.67224C16.1328 8.12024 16.5808 7.67224 17.1328 7.67224C17.6848 7.67224 18.1328 8.12024 18.1328 8.67224V15.1002C18.1328 15.6522 17.6848 16.1002 17.1328 16.1002Z" fill="#121212"/>
<g id="Group 9">
<mask id="mask0_337_318" style="mask-type:luminance" maskUnits="userSpaceOnUse" x="0" y="0" width="30" height="24">
<path id="Clip 8" fill-rule="evenodd" clip-rule="evenodd" d="M0.333984 0.333252H29.0006V23.6662H0.333984V0.333252Z" fill="white"/>
</mask>
<g mask="url(#mask0_337_318)">
<path id="Fill 7" fill-rule="evenodd" clip-rule="evenodd" d="M2.33398 15.7382V18.3235C2.33398 20.1662 3.85798 21.6662 5.73132 21.6662H23.6033C25.4766 21.6662 27.0007 20.1662 27.0007 18.3235V15.7382C25.3326 15.2995 24.098 13.7902 24.098 12.0008C24.098 10.2102 25.3313 8.70216 27.0007 8.26349L26.9993 5.67549C26.9993 3.83282 25.4753 2.33282 23.602 2.33282H5.73265C3.85932 2.33282 2.33532 3.83282 2.33532 5.67549L2.33398 8.36616C4.02332 8.78082 5.23665 10.2288 5.23665 12.0008C5.23665 13.7902 4.00198 15.2995 2.33398 15.7382ZM23.6033 23.6662H5.73132C2.75532 23.6662 0.333984 21.2688 0.333984 18.3235V14.8675C0.333984 14.3155 0.781984 13.8675 1.33398 13.8675C2.38332 13.8675 3.23665 13.0302 3.23665 12.0008C3.23665 11.0008 2.41798 10.2462 1.33398 10.2462C1.06865 10.2462 0.813984 10.1408 0.627318 9.95283C0.439318 9.76616 0.333984 9.51016 0.333984 9.24616L0.335318 5.67549C0.335318 2.73016 2.75665 0.332825 5.73265 0.332825H23.602C26.578 0.332825 28.9993 2.73016 28.9993 5.67549L29.0006 9.13416C29.0006 9.39816 28.8953 9.65416 28.7073 9.84083C28.5207 10.0288 28.266 10.1342 28.0006 10.1342C26.9513 10.1342 26.098 10.9715 26.098 12.0008C26.098 13.0302 26.9513 13.8675 28.0006 13.8675C28.5526 13.8675 29.0006 14.3155 29.0006 14.8675V18.3235C29.0006 21.2688 26.5793 23.6662 23.6033 23.6662Z" fill="#121212"/>
</g>
</g>
</g>
</svg>
