<svg width="24" height="24" viewBox="0 0 24 24" fill="none" xmlns="http://www.w3.org/2000/svg">
<g id="Iconly/Bold/Star">
<g id="Star">
<path id="Star_2" d="M17.9178 14.319C17.6588 14.57 17.5398 14.933 17.5988 15.289L18.4878 20.209C18.5628 20.626 18.3868 21.048 18.0378 21.289C17.6958 21.539 17.2408 21.569 16.8678 21.369L12.4388 19.059C12.2848 18.977 12.1138 18.933 11.9388 18.928H11.6678C11.5738 18.942 11.4818 18.972 11.3978 19.018L6.96776 21.339C6.74876 21.449 6.50076 21.488 6.25776 21.449C5.66576 21.337 5.27076 20.773 5.36776 20.178L6.25776 15.258C6.31676 14.899 6.19776 14.534 5.93876 14.279L2.32776 10.779C2.02576 10.486 1.92076 10.046 2.05876 9.64903C2.19276 9.25303 2.53476 8.96403 2.94776 8.89903L7.91776 8.17803C8.29576 8.13903 8.62776 7.90903 8.79776 7.56903L10.9878 3.07902C11.0398 2.97902 11.1068 2.88702 11.1878 2.80902L11.2778 2.73902C11.3248 2.68702 11.3788 2.64402 11.4388 2.60902L11.5478 2.56902L11.7178 2.49902H12.1388C12.5148 2.53802 12.8458 2.76302 13.0188 3.09902L15.2378 7.56903C15.3978 7.89603 15.7088 8.12303 16.0678 8.17803L21.0378 8.89903C21.4578 8.95903 21.8088 9.24903 21.9478 9.64903C22.0788 10.05 21.9658 10.49 21.6578 10.779L17.9178 14.319Z" fill="#F7B940"/>
</g>
</g>
</svg>
