<svg width="32" height="32" viewBox="0 0 32 32" fill="none" xmlns="http://www.w3.org/2000/svg">
<g id="Component 8" clip-path="url(#clip0_1909_1511)">
<path id="Vector" d="M28 9.70667V6.66667C28 5.2 26.8 4 25.3333 4H6.66667C5.18667 4 4 5.2 4 6.66667V25.3333C4 26.8 5.18667 28 6.66667 28H25.3333C26.8 28 28 26.8 28 25.3333V22.2933C28.7867 21.8267 29.3333 20.9867 29.3333 20V12C29.3333 11.0133 28.7867 10.1733 28 9.70667ZM26.6667 12V20H17.3333V12H26.6667ZM6.66667 25.3333V6.66667H25.3333V9.33333H17.3333C15.8667 9.33333 14.6667 10.5333 14.6667 12V20C14.6667 21.4667 15.8667 22.6667 17.3333 22.6667H25.3333V25.3333H6.66667Z" fill="#121212"/>
<path id="Vector_2" d="M21.334 18C22.4386 18 23.334 17.1046 23.334 16C23.334 14.8954 22.4386 14 21.334 14C20.2294 14 19.334 14.8954 19.334 16C19.334 17.1046 20.2294 18 21.334 18Z" fill="#121212"/>
</g>
<defs>
<clipPath id="clip0_1909_1511">
<rect width="32" height="32" fill="white"/>
</clipPath>
</defs>
</svg>
